:FULLY-SPECIFIED
:FORCE-ALL-JOINTS-BE-3DOF
:DEGREES
1631
root -15.1006 14.6151 19.3459 -18.2326 -71.4378 18.2613
lfemur 12.4277 -11.5682 -13.2522
ltibia 28.4211 -0 0
lfoot -21.2176 29.2538 0.000490741
ltoes -44.0609 0 0
rfemur -52.4101 -14.4105 7.67056
rtibia 66.0107 -0 0
rfoot -9.88333 10.4201 -0.00290237
rtoes 3.91775 -0 0
lowerback 13.0349 4.19916 -7.64275
upperback -0.296073 4.33364 -0.492544
thorax -8.18846 2.38675 2.89379
lowerneck 1.14567 -12.7923 -12.5589
upperneck 3.61212 -17.5562 9.95086
head 2.86867 -8.80223 4.27134
lclavicle 7.60351e-14 -4.77083e-15 0
lhumerus -71.8627 -17.1617 104.185
lradius 104.156 -0 0
lwrist 54.7775 0 0
lhand -12.0274 48.9828 0.101748
lfingers 7.12502 -0 0
lthumb 14.0206 78.3444 0.0581364
rclavicle 7.60351e-14 -4.77083e-15 0
rhumerus 46.8859 -3.83263 -55.7226
rradius 19.2235 -0 0
rwrist 22.4907 0 0
rhand -18.1418 -35.6192 0.00358397
rfingers 7.12502 -0 0
rthumb 8.13348 -65.4421 0.00352725
1632
root -15.1128 14.6156 19.3465 -18.0605 -71.4608 18.1319
lfemur 12.4902 -11.6239 -13.2493
ltibia 28.3537 -0 0
lfoot -21.2072 29.3424 0.000420838
ltoes -43.9594 0 0
rfemur -52.4095 -14.4424 7.6901
rtibia 66.0498 -0 0
rfoot -10.0235 10.4592 -0.00248894
rtoes 3.93879 -0 0
lowerback 13.0093 4.18724 -7.60732
upperback -0.317389 4.32828 -0.462279
thorax -8.19613 2.38473 2.90833
lowerneck 1.18036 -12.8356 -12.5591
upperneck 3.56689 -17.6169 9.97278
head 2.85827 -8.83291 4.27645
lclavicle 7.60351e-14 -4.77083e-15 0
lhumerus -71.9064 -17.1755 104.215
lradius 104.162 -0 0
lwrist 54.769 0 0
lhand -12.973 48.7795 0.0872366
lfingers 7.12502 -0 0
lthumb 13.1109 78.2237 0.049846
rclavicle 7.60351e-14 -4.77083e-15 0
rhumerus 46.8915 -3.83007 -55.7911
rradius 19.1818 -0 0
rwrist 22.554 0 0
rhand -18.0811 -35.5075 0.00307345
rfingers 7.12502 -0 0
rthumb 8.19202 -65.3283 0.0030248
1633
root -15.1235 14.6161 19.3469 -17.9017 -71.4819 18.0124
lfemur 12.5478 -11.6752 -13.2467
ltibia 28.2916 -0 0
lfoot -21.1975 29.424 0.000342102
ltoes -43.8659 0 0
rfemur -52.409 -14.4718 7.7081
rtibia 66.0859 -0 0
rfoot -10.1527 10.4953 -0.00202327
rtoes 3.95818 -0 0
lowerback 12.9858 4.17628 -7.57467
upperback -0.337031 4.32335 -0.434393
thorax -8.2032 2.38286 2.92173
lowerneck 1.21233 -12.8755 -12.5592
upperneck 3.52518 -17.6728 9.99303
head 2.84868 -8.86119 4.28117
lclavicle 7.60351e-14 -4.77083e-15 0
lhumerus -71.9467 -17.1883 104.243
lradius 104.167 -0 0
lwrist 54.7613 0 0
lhand -13.8441 48.5924 0.0708989
lfingers 7.12502 -0 0
lthumb 12.2729 78.1125 0.0405118
rclavicle 7.60351e-14 -4.77083e-15 0
rhumerus 46.8967 -3.8277 -55.8543
rradius 19.1433 -0 0
rwrist 22.6123 0 0
rhand -18.0253 -35.4046 0.00249842
rfingers 7.12502 -0 0
rthumb 8.24596 -65.2233 0.00245888
1634
root -15.1327 14.6165 19.3472 -17.759 -71.5007 17.9051
lfemur 12.5995 -11.7211 -13.2444
ltibia 28.236 -0 0
lfoot -21.1889 29.4972 0.000259847
ltoes -43.7821 0 0
rfemur -52.4085 -14.4982 7.72424
rtibia 66.1182 -0 0
rfoot -10.2685 10.5276 -0.00153679
rtoes 3.97555 -0 0
lowerback 12.9646 4.16646 -7.5454
upperback -0.354639 4.31894 -0.409397
thorax -8.20953 2.3812 2.93374
lowerneck 1.24099 -12.9113 -12.5594
upperneck 3.48777 -17.7229 10.0112
head 2.84009 -8.88653 4.2854
lclavicle 7.60351e-14 -4.77083e-15 0
lhumerus -71.9828 -17.1997 104.269
lradius 104.172 -0 0
lwrist 54.7543 0 0
lhand -14.6248 48.4249 0.0538391
lfingers 7.12502 -0 0
lthumb 11.5217 78.013 0.0307645
rclavicle 7.60351e-14 -4.77083e-15 0
rhumerus 46.9014 -3.82557 -55.9109
rradius 19.1088 -0 0
rwrist 22.6646 0 0
rhand -17.9752 -35.3123 0.0018977
rfingers 7.12502 -0 0
rthumb 8.2943 -65.1292 0.00186766
